<svg width="151" height="36" viewBox="0 0 151 36" fill="none" xmlns="http://www.w3.org/2000/svg">
<path d="M2.84046 6.45808V14.8431H0V0.190785H2.72979V2.37528H2.87735C3.23394 1.69481 3.75346 1.12881 4.43591 0.677288C5.1245 0.225763 5.96373 0 6.95359 0C7.80818 0 8.58593 0.193965 9.28682 0.581895C9.98771 0.969826 10.5441 1.57398 10.956 2.39436C11.3741 3.21473 11.5832 4.27677 11.5832 5.58047V14.8431H8.75193V5.7331C8.75193 4.75373 8.49063 3.98741 7.96804 3.43414C7.45159 2.8745 6.79373 2.59468 5.99447 2.59468C5.45958 2.59468 4.94928 2.74095 4.46358 3.03349C3.98402 3.32602 3.59361 3.75847 3.29235 4.33083C2.99109 4.90318 2.84046 5.61227 2.84046 6.45808Z" transform="translate(53.0001 10)" fill="#EBEFF2"/>
<path d="M25.3732 14.8431V13.0211H25.2441C25.0843 13.3327 24.8383 13.6539 24.5063 13.9846C24.1805 14.3153 23.7532 14.5951 23.2244 14.824C22.6957 15.0466 22.0563 15.1579 21.3062 15.1579C20.4332 15.1579 19.64 14.9862 18.9269 14.6428C18.2137 14.293 17.645 13.7842 17.2207 13.1165C16.7965 12.4487 16.5844 11.6411 16.5844 10.6935C16.5844 9.66964 16.8334 8.85244 17.3314 8.24193C17.8356 7.63141 18.5119 7.17671 19.3603 6.87781C20.2087 6.57255 21.1463 6.36269 22.1731 6.24822C22.7141 6.17827 23.2214 6.12103 23.6948 6.07651C24.1743 6.02564 24.5617 5.93978 24.8568 5.81895C25.158 5.69176 25.3087 5.4819 25.3087 5.18936V5.06535C25.3087 4.11778 25.072 3.4405 24.5985 3.03349C24.1313 2.62012 23.5257 2.41343 22.7818 2.41343C21.9087 2.41343 21.2078 2.62012 20.6791 3.03349C20.1503 3.4405 19.7937 3.90156 19.6093 4.41668L16.9256 3.77755C17.2207 2.88722 17.6634 2.16541 18.2536 1.61214C18.85 1.0525 19.5355 0.64549 20.3102 0.391109C21.091 0.130369 21.9087 0 22.7633 0C23.3351 0 23.9315 0.0699546 24.5524 0.209864C25.1795 0.349773 25.7667 0.604154 26.3139 0.973005C26.8611 1.3355 27.3037 1.85062 27.6419 2.51837C27.9862 3.18612 28.1583 4.04783 28.1583 5.10351V14.8431H25.3732ZM25.3087 9.73005V7.73635C25.2041 7.86354 24.9582 7.97483 24.5709 8.07022C24.1835 8.16561 23.7685 8.24511 23.3259 8.3087C22.8894 8.36594 22.5389 8.41363 22.2745 8.45179C21.4261 8.5599 20.7283 8.77931 20.1811 9.11C19.64 9.44069 19.3695 9.98443 19.3695 10.7412C19.3695 11.4026 19.6032 11.9082 20.0704 12.258C20.5438 12.6014 21.1494 12.7731 21.8872 12.7731C22.9447 12.7731 23.7778 12.4646 24.3864 11.8478C25.0013 11.2245 25.3087 10.5186 25.3087 9.73005Z" transform="translate(53.0001 10)" fill="#EBEFF2"/>
<path d="M36.581 6.45808V14.8431H33.7406V0.190785H36.4704V2.37528H36.6179C36.9745 1.69481 37.494 1.12881 38.1765 0.677288C38.8651 0.225763 39.7043 0 40.6942 0C41.5488 0 42.3265 0.193965 43.0274 0.581895C43.7283 0.969826 44.2847 1.57398 44.6966 2.39436C45.1147 3.21473 45.3237 4.27677 45.3237 5.58047V14.8431H42.4925V5.7331C42.4925 4.75373 42.2312 3.98741 41.7086 3.43414C41.1922 2.8745 40.5343 2.59468 39.7351 2.59468C39.2002 2.59468 38.6899 2.74095 38.2042 3.03349C37.7246 3.32602 37.3342 3.75847 37.0329 4.33083C36.7317 4.90318 36.581 5.61227 36.581 6.45808Z" transform="translate(53.0001 10)" fill="#EBEFF2"/>
<path d="M53.7557 6.45808V14.8431H50.9152V0.190785H53.645V2.37528H53.7925C54.1491 1.69481 54.6687 1.12881 55.3511 0.677288C56.0397 0.225763 56.8789 0 57.8688 0C58.7234 0 59.5011 0.193965 60.202 0.581895C60.9029 0.969826 61.4593 1.57398 61.8712 2.39436C62.2893 3.21473 62.4984 4.27677 62.4984 5.58047V14.8431H59.6671V5.7331C59.6671 4.75373 59.4058 3.98741 58.8832 3.43414C58.3668 2.8745 57.7089 2.59468 56.9097 2.59468C56.3748 2.59468 55.8645 2.74095 55.3788 3.03349C54.8992 3.32602 54.5088 3.75847 54.2075 4.33083C53.9063 4.90318 53.7557 5.61227 53.7557 6.45808Z" transform="translate(53.0001 10)" fill="#EBEFF2"/>
<path d="M74.0013 15.1388C72.6856 15.1388 71.5389 14.8208 70.5614 14.1849C69.59 13.5489 68.8368 12.665 68.3019 11.533C67.767 10.3946 67.4996 9.07184 67.4996 7.56464C67.4996 6.05744 67.767 4.73784 68.3019 3.60584C68.8368 2.46749 69.59 1.58352 70.5614 0.953927C71.5389 0.317975 72.6856 0 74.0013 0C75.317 0 76.4606 0.317975 77.432 0.953927C78.4034 1.58352 79.1565 2.46749 79.6914 3.60584C80.2325 4.73784 80.503 6.05744 80.503 7.56464C80.503 9.07184 80.2325 10.3946 79.6914 11.533C79.1565 12.665 78.4034 13.5489 77.432 14.1849C76.4606 14.8208 75.317 15.1388 74.0013 15.1388ZM74.0013 12.6395C74.862 12.6395 75.5691 12.4106 76.1224 11.9527C76.6758 11.4948 77.0815 10.8811 77.3398 10.1116C77.6041 9.34212 77.7363 8.49313 77.7363 7.56464C77.7363 6.64251 77.6041 5.79669 77.3398 5.02719C77.0815 4.25769 76.6758 3.644 76.1224 3.18612C75.5691 2.72187 74.862 2.48975 74.0013 2.48975C73.1344 2.48975 72.4243 2.72187 71.8709 3.18612C71.3238 3.644 70.918 4.25769 70.6536 5.02719C70.3954 5.79669 70.2663 6.64251 70.2663 7.56464C70.2663 8.49313 70.3954 9.34212 70.6536 10.1116C70.918 10.8811 71.3238 11.4948 71.8709 11.9527C72.4243 12.4106 73.1344 12.6395 74.0013 12.6395Z" transform="translate(53.0001 10)" fill="#EBEFF2"/>
<path d="M94.2446 8.69981V0.190785H97.0759V14.8431H94.3461V12.9448H94.1985C93.8296 13.4853 93.304 13.9687 92.6215 14.3948C91.9452 14.8208 91.1121 15.0339 90.1223 15.0339C89.4029 15.0339 88.6867 14.8463 87.9735 14.4711C87.2603 14.0895 86.667 13.4917 86.1936 12.6777C85.7263 11.8573 85.4927 10.7826 85.4927 9.45341V0.190785H88.3332V9.40572C88.3332 10.3851 88.5914 11.1355 89.1078 11.657C89.6304 12.1785 90.2913 12.4392 91.0906 12.4392C91.6255 12.4392 92.1327 12.3025 92.6123 12.029C93.098 11.7556 93.4915 11.3454 93.7927 10.7985C94.094 10.2452 94.2446 9.54563 94.2446 8.69981Z" transform="translate(53.0001 10)" fill="#EBEFF2"/>
<path d="M26.2069 0C28.9373 0 30.7342 0.319582 31.5743 0.939948C32.4144 1.56031 32.8345 2.87624 32.8345 4.86893V32.8042C32.8345 33.9885 32.6011 34.8157 32.1811 35.2856C31.7377 35.7744 30.9909 36 29.9174 36C28.9373 36 28.2605 35.7556 27.8638 35.248C27.4671 34.7405 27.2571 33.9133 27.2571 32.729V8.44073C27.2571 6.76762 26.9537 5.69608 26.3236 5.22611C25.6935 4.75614 24.2 4.53055 21.8196 4.53055H10.7348C8.70452 4.53055 7.351 4.73734 6.65091 5.16971C5.97415 5.60209 5.6241 6.46684 5.6241 7.78277V9.77546C5.6241 10.847 5.69411 11.6366 5.83413 12.1817C6.02082 12.8961 6.53423 13.3849 7.42101 13.6856L8.21446 13.9488C9.10124 14.2308 9.68466 14.6444 9.96469 15.152C10.2447 15.6595 10.3848 16.5243 10.3848 17.7462V30.4167C10.3848 32.4846 10.0347 33.8757 9.35794 34.5901C8.68119 35.3044 7.28099 35.6616 5.20404 35.6616C2.98707 35.6616 1.54021 35.248 0.816778 34.4397C0.280038 33.8005 0 32.4094 0 30.2475V5.4517C0 3.13943 0.443394 1.63551 1.33018 0.958747C2.1703 0.319582 3.80385 0 6.23085 0H26.2069Z" fill="#F5F5F5"/>
</svg>
